<?xml version="1.0" standalone="no"?>
<!DOCTYPE svg PUBLIC "-//W3C//DTD SVG 20010904//EN"
 "http://www.w3.org/TR/2001/REC-SVG-20010904/DTD/svg10.dtd">
<svg version="1.0" xmlns="http://www.w3.org/2000/svg"
 width="1024.000000pt" height="1024.000000pt" viewBox="0 0 1024.000000 1024.000000"
 preserveAspectRatio="xMidYMid meet">

<g transform="translate(0.000000,1024.000000) scale(0.100000,-0.100000)"
fill="#000000" stroke="none">
<path d="M8990 6325 c-115 -52 -231 -81 -427 -110 -204 -30 -363 -64 -443 -94
-99 -37 -211 -111 -290 -190 -121 -123 -184 -252 -195 -405 l-6 -71 24 60 c26
70 99 185 148 235 74 76 195 163 273 195 57 24 53 13 -11 -30 -122 -80 -263
-252 -348 -423 -61 -122 -83 -196 -90 -293 l-6 -84 19 66 c20 76 77 164 137
214 56 45 146 93 290 155 269 114 376 184 476 315 111 145 144 184 202 243 74
76 134 123 251 196 49 31 85 56 80 55 -5 0 -43 -16 -84 -34z"/>
<path d="M6157 5843 c-4 -3 -7 -339 -7 -745 l0 -738 120 0 120 0 0 745 0 745
-113 0 c-63 0 -117 -3 -120 -7z"/>
<path d="M2332 5803 c-47 -23 -75 -67 -79 -127 -5 -69 19 -114 77 -143 56 -29
94 -29 145 0 56 31 87 89 80 146 -13 110 -126 172 -223 124z"/>
<path d="M1060 5070 l0 -690 234 0 c248 0 331 9 437 49 129 49 256 157 328
278 63 108 83 186 89 345 4 126 2 144 -22 228 -35 123 -88 210 -180 298 -86
82 -179 133 -294 163 -65 16 -111 19 -334 19 l-258 0 0 -690z m510 449 c147
-34 265 -151 306 -304 16 -59 18 -221 3 -285 -46 -200 -206 -310 -451 -310
l-108 0 0 455 0 455 103 0 c56 0 122 -5 147 -11z"/>
<path d="M3850 5490 l0 -150 -75 0 -75 0 0 -105 0 -104 73 -3 72 -3 3 -377 2
-378 120 0 120 0 0 380 0 380 80 0 80 0 0 105 0 105 -80 0 -80 0 0 150 0 150
-120 0 -120 0 0 -150z"/>
<path d="M3060 5350 c-151 -26 -275 -122 -350 -270 -74 -146 -66 -367 19 -498
43 -67 136 -154 199 -186 148 -75 356 -73 502 5 61 32 195 160 188 180 -2 6
-43 31 -91 56 l-88 45 -35 -36 c-62 -64 -106 -81 -209 -81 -107 0 -153 14
-208 64 -37 33 -76 99 -77 129 0 9 82 12 376 12 l377 0 -6 98 c-3 65 -13 117
-28 157 -89 240 -315 369 -569 325z m223 -234 c43 -25 97 -94 112 -143 l6 -23
-240 0 c-271 0 -262 -3 -218 74 27 47 81 92 133 112 58 21 153 13 207 -20z"/>
<path d="M4721 5349 c-113 -20 -244 -103 -316 -199 -123 -168 -131 -402 -20
-575 39 -59 125 -143 178 -174 205 -116 477 -81 642 84 270 270 171 710 -191
842 -79 28 -206 38 -293 22z m232 -251 c140 -60 198 -246 121 -389 -90 -164
-321 -187 -453 -44 -141 153 -54 412 152 455 55 11 120 3 180 -22z"/>
<path d="M6965 5343 c-57 -12 -146 -50 -196 -84 -261 -176 -294 -550 -69 -777
202 -203 546 -205 747 -3 100 100 153 222 153 356 0 240 -154 437 -390 500
-51 14 -198 19 -245 8z m232 -244 c105 -51 169 -161 160 -275 -16 -207 -223
-322 -413 -229 -96 47 -154 141 -154 251 0 95 38 168 118 225 86 62 197 73
289 28z"/>
<path d="M8118 5340 c-165 -26 -308 -149 -370 -318 -17 -46 -21 -80 -22 -182
0 -144 15 -200 86 -308 50 -77 99 -120 186 -163 59 -29 78 -33 169 -37 152 -7
226 17 302 97 l44 46 -6 -80 c-12 -168 -65 -253 -181 -289 -125 -40 -258 -4
-326 87 l-35 47 -124 0 c-94 0 -122 -3 -119 -12 3 -7 13 -36 22 -64 9 -28 38
-77 64 -110 88 -109 209 -170 363 -181 270 -19 492 127 554 362 12 49 15 143
15 567 l0 508 -115 0 -115 0 0 -56 0 -56 -43 44 c-87 86 -206 120 -349 98z
m200 -225 c67 -20 130 -69 159 -124 20 -39 23 -58 23 -158 0 -130 -6 -149 -72
-209 -61 -57 -150 -81 -238 -66 -147 26 -229 128 -230 283 0 131 81 243 199
275 62 17 98 17 159 -1z"/>
<path d="M2280 4856 l0 -486 120 0 120 0 0 480 0 480 -59 0 c-32 0 -86 3 -120
6 l-61 7 0 -487z"/>
<path d="M5625 4682 c-65 -42 -95 -93 -95 -163 0 -191 272 -250 351 -75 36 79
13 169 -56 222 -50 38 -153 46 -200 16z"/>
</g>
</svg>
